# xmcd
#
# Track frame offsets:
#	150
#	16666
#	33208
#	51047
#	67663
#	85435
#	105690
#	124036
#	141360
#	158664
#	177183
#
# Disc length: 2586 seconds
#
# Revision: 0
# Processed by: cddbd v1.4PL0 Copyright (c) Steve Scherf et al.
# Submitted via: dBpowerAMP V4.0
#
DISCID=810a180b
DTITLE=Jennifer Hanson - Jennifer Hanson
DYEAR=2003
DGENRE=Country
TTITLE0=Beautiful Goodbye
TTITLE1=Just One Of Those Days
TTITLE2=Half A Heart Tatoo
TTITLE3=This Far Gone
TTITLE4=Get Yourself Back
TTITLE5=All Those Yesterdays
TTITLE6=Travis
TTITLE7=One Little Word
TTITLE8=It Isn't Just Raining
TTITLE9=Baby I Was Wrong
TTITLE10=Simply Yours
EXTD=
EXTT0=
EXTT1=
EXTT2=
EXTT3=
EXTT4=
EXTT5=
EXTT6=
EXTT7=
EXTT8=
EXTT9=
EXTT10=
PLAYORDER=
